<svg xmlns="http://www.w3.org/2000/svg" width="204" height="204"><g fill="none" fill-rule="evenodd"><circle cx="102" cy="102" r="102" fill="#202020"/><g fill="#DED4C9" fill-rule="nonzero" class="playbutton-text"><path d="M45.397 70.16c-2.749-1.863-3.308-4.984-1.723-7.361a4.84 4.84 0 0 1 5.824-1.91l-.932 1.398a3.263 3.263 0 0 0-3.589 1.351c-1.118 1.677-.698 3.775 1.352 5.172 2.05 1.352 4.193.933 5.312-.698a3.25 3.25 0 0 0-.14-3.914l.932-1.398a4.846 4.846 0 0 1 .466 6.15 5.227 5.227 0 0 1-7.502 1.21zM50.756 53.994l1.165-1.119 6.477 6.617 3.728-3.635 1.072 1.119-4.892 4.751zM60.4 45.56l1.305-.933 6.244 8.76-1.305.933zM69.44 45.886a5.202 5.202 0 0 1 2.281-7.223 4.892 4.892 0 0 1 6.014 1.304l-1.538.746a3.298 3.298 0 0 0-3.823-.65c-1.817.838-2.516 2.888-1.49 5.125 1.071 2.237 3.12 2.936 4.891 2.096a3.258 3.258 0 0 0 1.864-3.447l1.537-.746a4.92 4.92 0 0 1-2.702 5.545c-2.56 1.256-5.589.232-7.033-2.75zM82.348 34.75l1.584-.373 1.118 4.799 2.889-5.732 1.957-.465-3.122 6.197 5.87 4.24-1.956.465-5.498-3.96 1.165 4.942-1.584.375zM103.921 32l1.587.14-.422 4.516 5.452.513.419-4.52 1.63.14-1.025 10.716-1.584-.14.466-4.656-5.452-.512-.466 4.656-1.584-.14zM119.53 34.377l6.756 2.143-.466 1.444-5.219-1.677-.932 2.935 4.892 1.584-.465 1.445-4.892-1.584-.933 2.935 5.22 1.677-.466 1.445-6.757-2.097zM132.484 39.222l4.237 2.376a3.2 3.2 0 0 1 1.026 4.566 3.155 3.155 0 0 1-4.427 1.445l-.326-.19 1.445 5.218-1.817-1.025-1.445-5.219-.652-.372-1.91 3.354-1.398-.792zm1.49 6.99a1.717 1.717 0 0 0 2.331-.886 1.76 1.76 0 0 0-.466-2.47l-2.749-1.538-1.91 3.354zM144.878 47.097l5.312 4.657-1.026 1.165-4.1-3.589-2.003 2.33 3.867 3.402-1.025 1.165-3.868-3.401-2.003 2.33 4.1 3.588-1.025 1.165-5.312-4.656zM159.322 65.596l-1.77-2.89 1.308-.792 4.38 7.176-1.305.792-1.77-2.889-7.874 4.8-.84-1.398zM166.878 79.328a5.142 5.142 0 0 1-9.791 3.134 5.202 5.202 0 0 1 3.54-6.663 5.142 5.142 0 0 1 6.251 3.53zm-1.217.368c-.608-2.082-2.52-3.121-4.617-2.567-1.07.297-1.975.87-2.496 1.85-.52.98-.555 2.048-.203 3.1.714 2.048 2.68 2.916 4.745 2.255 2.066-.661 3.18-2.556 2.571-4.638zM171.25 98.211v4.847a3.155 3.155 0 0 1-3.448 3.122 3.19 3.19 0 0 1-3.447-3.169v-3.214h-3.821v-1.632zm-5.359 4.752a1.759 1.759 0 0 0 1.91 1.63 1.73 1.73 0 0 0 1.91-1.63v-3.168h-3.867zM170.456 112.745l-.326 1.584-9.04-1.863-1.022 5.126-1.491-.326 1.351-6.71zM166.172 127.938l-.98 2.281-11.415-.605.698-1.63 2.703.139 1.957-4.52-1.957-1.863.699-1.631zm-7.455.233 5.219.326.14-.28-3.822-3.54zM153.918 136.42l7.921.652-1.025 1.49-5.731-.465-.19.233 2.565 5.08-1.025 1.49-3.494-7.127-3.168-2.143.932-1.351zM143.154 148.255l-1.258.978c-.606-.792-1.957-.885-3.262.096-1.398 1.071-1.537 2.05-.932 2.795.466.606 1.305.652 2.423.095l1.864-.979a2.724 2.724 0 0 1 3.728.699c1.072 1.398.792 3.401-1.119 4.846-2.143 1.678-4.147 1.305-5.359-.232l1.259-.98c.605.793 1.91.933 3.121 0 1.165-.885 1.305-1.956.746-2.655-.419-.559-1.118-.699-2.185-.14l-1.538.793c-1.957 1.025-3.308.885-4.333-.42-1.072-1.397-.84-3.354 1.258-4.985 2.232-1.682 4.375-1.402 5.587.089zM135.512 162.792l-1.444.699-1.957-4.1-4.941 2.33 1.956 4.1-1.444.7-4.61-9.74 1.444-.699 2.003 4.24 4.941-2.33-2.003-4.24 1.445-.7zM120.182 163.537c.699 3.215-1.072 5.918-3.867 6.476-2.796.606-5.499-1.071-6.197-4.333-.699-3.215 1.072-5.917 3.868-6.477 2.753-.604 5.497 1.073 6.196 4.334zm-8.527 1.817c.513 2.423 2.33 3.588 4.287 3.168s3.122-2.237 2.61-4.656c-.513-2.42-2.33-3.588-4.287-3.168-1.911.417-3.122 2.234-2.61 4.657zM105.364 171.738l-1.77-.095-1.63-8.573h-.327l-2.656 8.34-2.003-.095-1.818-8.57h-.326l-2.516 8.34-1.77-.095 3.214-10.623 2.471.14 1.677 8.154h.326l2.471-7.968 2.47.14zM77.361 167.219l-4.426-1.957a3.172 3.172 0 0 1-1.491-4.426 3.216 3.216 0 0 1 4.287-1.909l.372.14-2.008-5.081 1.91.839 2.003 5.08.699.325 1.538-3.54 1.49.651zm-2.237-6.85a1.744 1.744 0 0 0-2.237 1.118 1.806 1.806 0 0 0 .699 2.424l2.889 1.258 1.537-3.54zM64.175 160.603l-5.778-4.054.886-1.258 4.473 3.168 1.769-2.516-4.194-2.982.886-1.258 4.193 2.982 1.77-2.516L63.709 149l.885-1.259 5.778 4.054zM53.319 152.122 48.473 147l1.118-1.072 3.775 3.961 2.234-2.1-3.541-3.728 1.118-1.072 3.541 3.728 2.237-2.096-3.774-3.961 1.118-1.072 4.847 5.126zM44.373 141.638l-.886-1.352 7.781-4.941-2.795-4.426 1.304-.84 3.682 5.778z"/><path d="M51.734 136.56a60.59 60.59 0 0 1-4.287-60.76l1.538.746a57.985 57.985 0 0 0-6.01 25.957 58.654 58.654 0 0 0 10.203 33.129z"/></g></g></svg>